<svg width="20" height="20" viewBox="0 0 20 20" fill="none" xmlns="http://www.w3.org/2000/svg">
<g clip-path="url(#clip0_3001_2225)">
<path d="M9.99967 19.1673C15.0539 19.1673 19.1663 15.0553 19.1663 10.0007C19.1663 9.12822 19.0446 8.26847 18.8034 7.44509C18.6846 7.04021 18.2618 6.80765 17.8558 6.92645C17.4506 7.04487 17.2188 7.46915 17.3372 7.87403C17.5369 8.5581 17.6386 9.27387 17.6386 10.0007C17.6386 14.2127 14.2117 17.6395 9.99967 17.6395C5.78766 17.6395 2.36079 14.2127 2.36079 10.0007C2.36079 5.78863 5.78766 2.36176 9.99967 2.36176C11.5304 2.36176 13.0032 2.80935 14.2587 3.65586C14.6082 3.89178 15.0834 3.79909 15.3189 3.44959C15.5547 3.09973 15.4627 2.62491 15.1128 2.38918C13.6041 1.37184 11.8361 0.833984 9.99967 0.833984C4.94544 0.833984 0.833008 4.94604 0.833008 10.0007C0.833008 15.0553 4.94544 19.1673 9.99967 19.1673Z" fill="#FF5A30"/>
<path d="M18.577 1.91131L9.99952 10.4884L7.25538 7.74464C6.92986 7.41932 6.40252 7.41932 6.077 7.74464C5.75168 8.07016 5.75168 8.5975 6.077 8.92302L9.41033 12.2564C9.57329 12.4193 9.7861 12.5005 9.99952 12.5005C10.2129 12.5005 10.4258 12.4193 10.5887 12.2564L19.7554 3.08969C20.0807 2.76417 20.0807 2.23683 19.7554 1.91131C19.4299 1.58599 18.9025 1.58599 18.577 1.91131Z" fill="#FF5A30"/>
</g>
<defs>
<clipPath id="clip0_3001_2225">
<rect width="20" height="20" fill="white"/>
</clipPath>
</defs>
</svg>
